# xmcd
#
# Track frame offsets:
# 150
# 14290
# 27642
# 42947
# 59650
# 72120
# 86360
# 103360
# 122297
# 136195
# 159477
# 176715
# 191192
# 204127
# 211912
# 218402
# 234730
# 250617
# 264792
#
# Disc length: 3770 seconds
#
#
# Revision: 0
# Processed by: cddbd v1.5.2PL0 Copyright (c) Steve Scherf et al.
# Submitted via: FreeRIP 2.96 
#
DISCID=040eb813
DTITLE=João Bandeira - Seleção de Ouro
DYEAR=1900
DGENRE=Sertanejo
TTITLE0=Pra Não Morrer de Tristesa - 01
TTITLE1=Entre Espumas - 02
TTITLE2=Tango Pra Tereza - 03
TTITLE3=Casa de Viúva - 04
TTITLE4=Chico DumDum - 05
TTITLE5=Cabelos Brancos - 06
TTITLE6=Meu Vício é Você - 07
TTITLE7=Filho Meu - 08
TTITLE8=Trem das Onze - 09
TTITLE9=Lama - 10
TTITLE10=Meu Dilema - 11
TTITLE11=Eramos Três - 12
TTITLE12=Mulher Ingrata - 13
TTITLE13=Conselho Amigo - 14
TTITLE14=Amor Fingido - 15
TTITLE15=Toalha de Mesa - 16
TTITLE16=Canto Pra Um Amor Sem Fim - 17
TTITLE17=Volta Por Cima - 18
TTITLE18=Solidão de Um Caminhoneiro - 19
EXTD=
EXTT0=
EXTT1=
EXTT2=
EXTT3=
EXTT4=
EXTT5=
EXTT6=
EXTT7=
EXTT8=
EXTT9=
EXTT10=
EXTT11=
EXTT12=
EXTT13=
EXTT14=
EXTT15=
EXTT16=
EXTT17=
EXTT18=
PLAYORDER=
